<svg xmlns="http://www.w3.org/2000/svg" width="100" height="23.5" viewBox="0 0 100 23.5"><path fill="#7A7A7A" d="M20.269 4.778h5.253v2.339h-5.253v4.486h6.567v2.26h-14.7v-2.26h5.535V.567h2.598zM58.992.604h2.436v3.337h5.823v1.983H61.5c.271 1.832 1.215 2.927 1.215 2.927 1.432 2.081 5.088 3.797 5.088 3.797l-1.252 2.084c-4.424-2.019-6.342-5.33-6.342-5.33-1.327 3.1-5.996 5.226-5.996 5.226l-1.148-1.98C56.236 11.08 57.77 8.99 57.77 8.99c.696-.712 1.006-2.141 1.129-3.066h-5.303V3.941h5.396V.604zm18.75 7.688c.318.892.986 2.359 2.227 3.73a8.956 8.956 0 0 0 1.866-5.36h2.058s.023.352-.004.929c.166.636 1.022 3.45 3.977 5.541l-1.43 1.603s-2.121-1.485-3.25-3.747c-.5 1.293-1.336 2.651-2.733 3.7l-.218.218S78.1 13.38 76.91 11.191c-.581 1.307-1.511 2.628-3.017 3.582l-1.639-1.465s3.475-2.328 3.555-6.642c-.656.292-1.404.568-2.256.811l-1.086-1.79s5.254-.928 6.338-4.924l.045-.204h2.062s.329 3.565 6.606 5.128l-1.029 1.82s-4.834-1.189-6.573-3.973c0 0-.993 1.742-4.097 3.129h2.051c-.002-.002.016.659-.128 1.629zM36.132 2.57L33.959.584l-1.252 1.427 2.204 1.953zm-.209 4.115l-2.309-1.954-1.253 1.433 2.338 1.912zm-3.841 7.256l2.059.768 2.061-4.605-2.028-.836zm4.886-7.568l.836-1.378-.027 1.55h8.027V4.906h-7.941l.459-.766h7.935V2.224h-6.774l.598-.975-1.675-.94-3.041 5.052zm9.22 4.462s-.145 1.152-.453 1.461c0 0-.633.597-.598-.939v-3.94h-8.658l-.033 1.923h6.774v2.229s-.178 3.208 2.198 3.208c0 0 2.063.172 2.338-2.929l-1.568-1.013zM23.531 23.314h1.228v-6.189h-1.228v6.189zm12.15-.085h.542l.054-.147 2.194-5.551.129-.324h-1.269l-.06.153-1.511 4.033c-.032.071-.052.143-.08.215-.024-.072-.046-.141-.078-.215l-1.444-4.027-.06-.159h-1.313l.124.321 2.163 5.551.059.15h.55zm-19.866-3.375c-.233-.114-.647-.238-1.23-.379-.716-.174-.904-.298-.952-.349a.445.445 0 0 1-.134-.338c0-.165.067-.302.211-.427.149-.127.409-.193.775-.193.351 0 .608.072.771.219.167.143.259.358.291.66l.024.23.233-.021.675-.054.228-.017-.007-.225a2.134 2.134 0 0 0-.295-1.019 1.797 1.797 0 0 0-.804-.691 2.766 2.766 0 0 0-1.143-.229c-.389 0-.751.072-1.077.215a1.738 1.738 0 0 0-.773.666 1.786 1.786 0 0 0-.263.938c0 .303.074.582.222.83.141.246.366.457.655.62.213.124.57.246 1.084.379.479.126.788.215.917.267.183.076.311.166.381.26a.538.538 0 0 1 .104.326.646.646 0 0 1-.111.363.828.828 0 0 1-.355.266 1.64 1.64 0 0 1-.622.107c-.264 0-.509-.045-.717-.145-.2-.096-.345-.215-.433-.358-.094-.151-.157-.354-.185-.612l-.026-.228-.233.021-.669.063-.22.024.008.217c.007.426.12.811.327 1.146.211.343.5.601.87.771.355.164.795.25 1.312.25.415 0 .796-.086 1.134-.25a1.9 1.9 0 0 0 .797-.711c.184-.309.276-.641.276-.985s-.087-.663-.259-.935c-.172-.273-.435-.501-.787-.672zm53.037-2.648h-.473l-.059.153-2.144 5.55-.128.319h1.293l.057-.154.554-1.528h2.021l.592 1.532.06.15h1.354l-.129-.326-2.275-5.549-.063-.147h-.66zm-.504 3.269l.488-1.308c.042-.108.074-.224.107-.333.052.132.104.277.162.425l.455 1.216h-1.212zm-25.26-2.967a2.966 2.966 0 0 0-1.517-.4c-.852 0-1.562.291-2.104.856-.539.563-.813 1.349-.813 2.326 0 .521.116 1.017.345 1.487.233.478.585.855 1.033 1.125.449.279.965.418 1.533.418.523 0 1.02-.125 1.467-.368a2.608 2.608 0 0 0 1.073-1.11c.246-.478.37-1.02.37-1.615 0-.592-.119-1.127-.352-1.595a2.618 2.618 0 0 0-1.035-1.124zm-.325 4.206a1.564 1.564 0 0 1-1.199.509 1.56 1.56 0 0 1-1.191-.507c-.323-.338-.484-.801-.484-1.415 0-.763.17-1.306.498-1.613.334-.317.721-.47 1.188-.47.328 0 .611.079.871.24.258.165.448.385.581.683.141.303.211.666.211 1.086-.001.645-.157 1.145-.475 1.487zm36.281-1.026h3.082v-1.129h-3.082v-1.228h3.297v-1.125h-4.503v6.022h4.637v-1.125h-3.431v-1.415zm-15.847-3.482h-.592l-.051.17-1.057 3.752a.042.042 0 0 1-.008.022c-.012-.037-.02-.078-.029-.123 0 .005-.842-3.637-.842-3.637l-.043-.186h-1.258l.078.3 1.477 5.55.048.174h1.128l.044-.172 1.122-4.037c.229.821 1.117 4.037 1.117 4.037l.048.172h1.093l.049-.172 1.521-5.55.081-.302h-1.241l-.044.182-.868 3.564c-.013.047-.021.089-.029.13a21.639 21.639 0 0 0-.234-.894l-.805-2.813-.047-.17h-.646l-.012.003zm11.194 3.841h1.647v.688a2.335 2.335 0 0 1-.545.291 2.21 2.21 0 0 1-1.798-.049 1.451 1.451 0 0 1-.643-.642c-.152-.298-.229-.683-.229-1.136 0-.368.064-.715.193-1.03.072-.174.181-.331.312-.481.128-.141.302-.254.512-.343.22-.088.482-.136.789-.136.251 0 .479.042.679.127.194.082.34.186.438.314.106.138.196.334.272.589l.07.224.221-.059.668-.188.225-.058-.059-.23c-.104-.404-.258-.736-.465-.996a2.11 2.11 0 0 0-.869-.609 3.112 3.112 0 0 0-1.186-.215c-.596 0-1.128.123-1.589.369a2.54 2.54 0 0 0-1.086 1.149c-.24.499-.363 1.038-.363 1.615s.123 1.114.371 1.586c.253.483.629.86 1.117 1.11a3.392 3.392 0 0 0 1.608.381c.434 0 .862-.079 1.276-.234a4.37 4.37 0 0 0 1.188-.684l.093-.072V19.92h-2.851v1.127zm-27.953-3.841h-1.212v6.022h3.972v-1.125h-2.76v-4.897zm11.869 2.651c-.244-.111-.662-.228-1.285-.373-.754-.166-.949-.291-1.006-.338a.404.404 0 0 1-.137-.314c0-.159.07-.287.219-.405.16-.124.439-.192.824-.192.37 0 .651.072.827.216.169.137.265.344.294.633l.023.226.231-.017.71-.052.227-.02-.008-.228a1.87 1.87 0 0 0-.312-.994 1.78 1.78 0 0 0-.84-.67 2.985 2.985 0 0 0-1.185-.222c-.404 0-.779.07-1.109.211a1.728 1.728 0 0 0-.809.645 1.625 1.625 0 0 0-.283.914c0 .3.082.575.232.816.158.244.389.445.688.602.223.119.593.241 1.129.368.625.149.865.226.963.261.197.075.331.159.406.256.068.088.104.186.104.307s-.038.229-.109.336a.865.865 0 0 1-.377.263c-.192.072-.41.108-.66.108-.285 0-.537-.051-.76-.145a1.063 1.063 0 0 1-.462-.352 1.358 1.358 0 0 1-.188-.582l-.026-.229-.229.021-.699.062-.224.02.002.224c.015.413.131.792.348 1.123.22.329.525.583.906.744.367.162.828.241 1.363.241.434 0 .824-.079 1.172-.241.36-.161.642-.397.836-.69.192-.298.289-.623.289-.966 0-.345-.088-.655-.271-.919-.18-.263-.456-.482-.814-.648zm-6.051-.139l2.189-2.104.427-.407h-1.688l-.067.07-2.376 2.355v-2.427h-1.21v6.022h1.21v-2.055l.65-.622 1.832 2.578.069.099h1.569l-.278-.377-2.327-3.132zm34.424-2.512v3.827l-2.519-3.723-.07-.104h-1.125v6.022h1.185v-3.823l2.525 3.721.063.104h1.125v-6.023l-1.184-.001zm-66.963-.091h-.483l-.062.15-2.192 5.728-.122.319h1.307l.056-.155.568-1.577h2.07l.607 1.582.062.15h1.378l-.137-.322-2.324-5.729-.057-.146h-.671zm-.527 3.369l.503-1.359c.042-.12.076-.24.116-.359.05.144.107.293.17.457 0-.003.296.803.466 1.262H19.19v-.001zm10.691-1.254c-.096-.598-.688-1.051-1.359-1.051-1.229 0-1.69 1.008-1.69 2.06 0 1.001.461 2.01 1.69 2.01.836 0 1.307-.547 1.412-1.347h1.324c-.139 1.507-1.202 2.455-2.736 2.455-1.917 0-3.058-1.387-3.058-3.118 0-1.782 1.142-3.169 3.058-3.169 1.359 0 2.518.772 2.684 2.16h-1.325z"/></svg>