<?xml version="1.0" encoding="utf-8"?>
<!-- Generator: Adobe Illustrator 16.0.0, SVG Export Plug-In . SVG Version: 6.00 Build 0)  -->
<!DOCTYPE svg PUBLIC "-//W3C//DTD SVG 1.1//EN" "http://www.w3.org/Graphics/SVG/1.1/DTD/svg11.dtd">
<svg version="1.1" id="图层_1" xmlns="http://www.w3.org/2000/svg" xmlns:xlink="http://www.w3.org/1999/xlink" x="0px" y="0px"
	 width="100px" height="23.5px" viewBox="0 0 100 23.5" enable-background="new 0 0 100 23.5" xml:space="preserve">
<polygon points="20.269,4.778 25.522,4.778 25.522,7.117 20.269,7.117 20.269,11.603 26.836,11.603 26.836,13.863 12.136,13.863 
	12.136,11.603 17.671,11.603 17.671,0.567 20.269,0.567 "/>
<path d="M58.992,0.604h2.436v3.337h5.823v1.983H61.5c0.271,1.832,1.215,2.927,1.215,2.927c1.431,2.081,5.088,3.797,5.088,3.797
	l-1.252,2.085c-4.424-2.019-6.342-5.33-6.342-5.33c-1.327,3.1-5.996,5.226-5.996,5.226l-1.149-1.981
	c3.173-1.568,4.706-3.658,4.706-3.658c0.696-0.712,1.006-2.141,1.129-3.066h-5.304V3.941h5.397V0.604z"/>
<path d="M77.742,8.292c0.318,0.892,0.986,2.359,2.227,3.73c0.835-1.089,1.829-2.892,1.866-5.36h2.057c0,0,0.024,0.352-0.004,0.929
	c0.167,0.636,1.023,3.45,3.977,5.541l-1.429,1.603c0,0-2.122-1.486-3.25-3.747c-0.5,1.293-1.336,2.65-2.734,3.7l-0.218,0.217
	c0,0-2.134-1.526-3.325-3.715c-0.581,1.307-1.51,2.629-3.016,3.582l-1.639-1.466c0,0,3.474-2.327,3.554-6.641
	c-0.655,0.292-1.404,0.568-2.255,0.811l-1.086-1.79c0,0,5.254-0.928,6.338-4.924l0.044-0.204h2.062c0,0,0.329,3.565,6.607,5.128
	l-1.03,1.82c0,0-4.833-1.189-6.573-3.973c0,0-0.993,1.742-4.096,3.129h2.05C77.868,6.661,77.886,7.322,77.742,8.292z"/>
<g>
	<polygon points="36.132,2.57 33.959,0.584 32.707,2.011 34.911,3.964 	"/>
	<polygon points="35.923,6.685 33.614,4.731 32.361,6.164 34.699,8.076 	"/>
	<polygon points="32.082,13.942 34.141,14.709 36.202,10.104 34.174,9.268 	"/>
	<polygon points="36.968,6.373 37.804,4.995 37.777,6.545 45.804,6.545 45.804,4.906 37.863,4.906 38.322,4.14 46.257,4.14 
		46.257,2.224 39.483,2.224 40.081,1.249 38.406,0.309 35.365,5.361 	"/>
	<path d="M46.188,10.835c0,0-0.145,1.152-0.453,1.461c0,0-0.633,0.596-0.598-0.939V9.34V8.537V7.417h-8.658L36.446,9.34h6.774v2.229
		c0,0-0.178,3.208,2.198,3.208c0,0,2.063,0.172,2.338-2.929L46.188,10.835z"/>
</g>
<path d="M23.531,23.314h1.228v-6.189h-1.228V23.314z M35.681,23.229h0.542l0.054-0.148l2.194-5.551l0.129-0.324h-1.269l-0.06,0.153
	l-1.511,4.034c-0.032,0.071-0.052,0.142-0.08,0.214c-0.024-0.072-0.046-0.14-0.078-0.214l-1.444-4.028l-0.06-0.159h-1.313
	l0.124,0.321l2.163,5.551l0.059,0.151h0.541H35.681z M15.815,19.854c-0.233-0.115-0.647-0.239-1.23-0.38
	c-0.716-0.173-0.904-0.297-0.952-0.348c-0.091-0.091-0.134-0.197-0.134-0.338c0-0.165,0.067-0.301,0.211-0.426
	c0.149-0.128,0.409-0.194,0.775-0.194c0.351,0,0.608,0.072,0.771,0.219c0.167,0.142,0.259,0.358,0.291,0.66l0.024,0.23l0.233-0.021
	l0.675-0.054l0.228-0.017L16.7,18.96c-0.015-0.378-0.117-0.72-0.295-1.018c-0.189-0.304-0.459-0.536-0.804-0.692
	c-0.333-0.151-0.717-0.228-1.143-0.228c-0.389,0-0.751,0.072-1.077,0.215c-0.333,0.153-0.596,0.376-0.773,0.666
	c-0.174,0.288-0.263,0.6-0.263,0.937c0,0.303,0.074,0.582,0.222,0.83c0.141,0.246,0.366,0.457,0.655,0.62
	c0.213,0.124,0.57,0.246,1.084,0.379c0.479,0.126,0.788,0.215,0.917,0.267c0.183,0.076,0.311,0.166,0.381,0.26
	c0.068,0.092,0.104,0.201,0.104,0.326c0,0.132-0.037,0.248-0.111,0.363c-0.076,0.104-0.192,0.197-0.355,0.265
	c-0.175,0.072-0.385,0.108-0.622,0.108c-0.264,0-0.509-0.045-0.717-0.145c-0.2-0.096-0.345-0.214-0.433-0.358
	c-0.094-0.151-0.157-0.355-0.185-0.612l-0.026-0.228l-0.233,0.02l-0.669,0.064l-0.22,0.025l0.008,0.216
	c0.007,0.426,0.12,0.811,0.327,1.146c0.211,0.342,0.5,0.6,0.87,0.77c0.355,0.165,0.795,0.25,1.312,0.25
	c0.415,0,0.796-0.085,1.134-0.25c0.339-0.166,0.609-0.406,0.797-0.71c0.184-0.309,0.276-0.641,0.276-0.986s-0.087-0.663-0.259-0.935
	C16.43,20.253,16.167,20.026,15.815,19.854z M68.851,17.206h-0.472l-0.058,0.153l-2.144,5.55l-0.128,0.32h1.293l0.056-0.155
	l0.554-1.528h2.02l0.592,1.532l0.06,0.151h1.354l-0.129-0.326l-2.275-5.55l-0.063-0.147h-0.577H68.851z M68.347,20.475
	c0.177-0.473,0.489-1.308,0.489-1.308c0.042-0.109,0.074-0.224,0.107-0.333c0.052,0.132,0.104,0.277,0.163,0.425
	c0,0,0.286,0.768,0.454,1.216H68.347z M43.088,17.508c-0.451-0.263-0.959-0.4-1.517-0.4c-0.852,0-1.562,0.291-2.104,0.856
	c-0.539,0.564-0.813,1.348-0.813,2.326c0,0.521,0.116,1.016,0.345,1.487c0.233,0.478,0.585,0.856,1.033,1.126
	c0.449,0.278,0.965,0.417,1.533,0.417c0.523,0,1.02-0.124,1.467-0.368c0.463-0.254,0.821-0.626,1.073-1.11
	c0.246-0.478,0.37-1.02,0.37-1.616c0-0.591-0.119-1.127-0.352-1.594C43.889,18.152,43.539,17.775,43.088,17.508z M42.763,21.714
	c-0.317,0.337-0.707,0.508-1.199,0.508c-0.484,0-0.877-0.171-1.191-0.506c-0.323-0.338-0.484-0.801-0.484-1.415
	c0-0.763,0.17-1.306,0.498-1.613c0.334-0.318,0.721-0.47,1.188-0.47c0.328,0,0.611,0.079,0.871,0.24
	c0.258,0.165,0.448,0.385,0.581,0.683c0.141,0.302,0.211,0.666,0.211,1.085C43.237,20.872,43.081,21.372,42.763,21.714z
	 M79.044,20.688h3.082v-1.13h-3.082v-1.227h3.297v-1.125h-4.503v6.023h4.636v-1.125h-3.43V20.688z M63.197,17.206h-0.592
	l-0.051,0.17l-1.056,3.752c0,0.003-0.002,0.015-0.008,0.022c-0.011-0.037-0.019-0.078-0.029-0.122c0,0.004-0.842-3.638-0.842-3.638
	l-0.043-0.185h-1.258l0.078,0.3l1.477,5.549l0.048,0.175h1.128l0.044-0.172l1.122-4.037c0.228,0.821,1.117,4.037,1.117,4.037
	l0.048,0.172h1.092l0.05-0.172l1.521-5.55l0.081-0.302h-1.241l-0.044,0.182l-0.868,3.564c-0.013,0.047-0.021,0.089-0.03,0.13
	c-0.071-0.292-0.145-0.589-0.234-0.893l-0.804-2.813l-0.047-0.17h-0.647H63.197z M74.39,21.047h1.648v0.687
	c-0.132,0.104-0.313,0.195-0.545,0.292c-0.278,0.114-0.563,0.167-0.853,0.167c-0.329,0-0.647-0.073-0.945-0.216
	c-0.281-0.14-0.488-0.353-0.642-0.642c-0.153-0.298-0.229-0.683-0.229-1.136c0-0.368,0.064-0.714,0.194-1.03
	c0.072-0.174,0.18-0.331,0.311-0.481c0.128-0.141,0.302-0.255,0.512-0.343c0.219-0.088,0.482-0.136,0.789-0.136
	c0.251,0,0.479,0.042,0.678,0.127c0.195,0.082,0.34,0.186,0.439,0.314c0.107,0.138,0.196,0.335,0.273,0.589l0.07,0.224l0.221-0.059
	l0.668-0.188l0.224-0.058l-0.058-0.23c-0.104-0.405-0.259-0.737-0.466-0.996c-0.215-0.259-0.503-0.466-0.869-0.61
	c-0.354-0.144-0.752-0.215-1.185-0.215c-0.596,0-1.128,0.124-1.589,0.369c-0.468,0.251-0.836,0.64-1.086,1.15
	c-0.24,0.499-0.363,1.038-0.363,1.615s0.123,1.115,0.371,1.586c0.253,0.483,0.629,0.861,1.117,1.11
	c0.484,0.256,1.024,0.382,1.609,0.382c0.433,0,0.862-0.08,1.276-0.235c0.405-0.149,0.806-0.383,1.188-0.683l0.093-0.073V19.92H74.39
	V21.047z M46.438,17.206h-1.212v6.023h3.972v-1.125h-2.76V17.206z M58.306,19.857c-0.244-0.111-0.662-0.227-1.284-0.372
	c-0.754-0.167-0.95-0.292-1.006-0.339c-0.093-0.085-0.137-0.186-0.137-0.314c0-0.159,0.07-0.287,0.218-0.405
	c0.161-0.124,0.44-0.192,0.825-0.192c0.37,0,0.651,0.072,0.827,0.215c0.169,0.137,0.265,0.344,0.294,0.633l0.024,0.225l0.231-0.016
	l0.71-0.052l0.226-0.019l-0.007-0.228c-0.014-0.366-0.115-0.704-0.312-0.994c-0.196-0.297-0.476-0.522-0.84-0.67
	c-0.341-0.146-0.735-0.222-1.184-0.222c-0.405,0-0.779,0.071-1.11,0.211c-0.352,0.143-0.619,0.361-0.809,0.645
	c-0.187,0.283-0.283,0.589-0.283,0.914c0,0.3,0.082,0.575,0.233,0.817c0.158,0.244,0.389,0.444,0.688,0.601
	c0.222,0.119,0.592,0.241,1.129,0.368c0.625,0.15,0.865,0.225,0.962,0.261c0.197,0.075,0.331,0.159,0.407,0.256
	c0.068,0.087,0.103,0.185,0.103,0.306c0,0.122-0.038,0.23-0.11,0.336c-0.082,0.107-0.207,0.196-0.377,0.263
	c-0.192,0.072-0.409,0.108-0.659,0.108c-0.285,0-0.538-0.051-0.761-0.144c-0.209-0.089-0.362-0.212-0.461-0.352
	c-0.096-0.149-0.16-0.34-0.188-0.582l-0.027-0.228l-0.229,0.021L54.7,20.969l-0.224,0.019l0.003,0.224
	c0.014,0.413,0.13,0.792,0.347,1.123c0.22,0.329,0.525,0.583,0.906,0.744c0.368,0.162,0.829,0.242,1.363,0.242
	c0.434,0,0.825-0.08,1.173-0.242c0.36-0.161,0.641-0.398,0.835-0.69c0.193-0.298,0.29-0.623,0.29-0.966
	c0-0.345-0.089-0.655-0.271-0.919C58.941,20.242,58.665,20.023,58.306,19.857z M52.256,19.718l2.19-2.104l0.426-0.407h-1.688
	l-0.068,0.07l-2.376,2.356v-2.427h-1.21v6.023h1.21v-2.055l0.651-0.622l1.831,2.578l0.07,0.099h1.569l-0.278-0.378L52.256,19.718z
	 M86.679,17.206v3.827l-2.518-3.722l-0.07-0.105h-1.125v6.023h1.185v-3.824l2.525,3.721l0.063,0.104h1.125v-6.023H86.679z
	 M19.717,17.115h-0.483l-0.062,0.151l-2.192,5.727l-0.122,0.32h1.307l0.056-0.156l0.568-1.577h2.07l0.607,1.582l0.062,0.151h1.378
	l-0.137-0.323l-2.324-5.729l-0.057-0.146h-0.597H19.717z M19.19,20.484c0.179-0.486,0.503-1.359,0.503-1.359
	c0.042-0.12,0.076-0.24,0.116-0.359c0.05,0.143,0.107,0.292,0.17,0.457c0-0.003,0.296,0.803,0.466,1.262H19.19z M29.881,19.23
	c-0.096-0.597-0.688-1.051-1.359-1.051c-1.229,0-1.69,1.009-1.69,2.06c0,1.001,0.461,2.01,1.69,2.01
	c0.836,0,1.307-0.547,1.412-1.346h1.324c-0.139,1.506-1.202,2.455-2.736,2.455c-1.917,0-3.058-1.387-3.058-3.119
	c0-1.782,1.142-3.169,3.058-3.169c1.359,0,2.518,0.773,2.684,2.16H29.881z"/>
</svg>
